<svg width="152" height="32" viewBox="0 0 152 32" fill="none" xmlns="http://www.w3.org/2000/svg">
<rect width="32" height="32" rx="7" fill="black"/>
<g clip-path="url(#clip0_3_20)">
<path d="M18.4293 17.1553C17.9657 15.8577 16.8289 14.8303 15.3882 14.4072C13.9475 13.9841 12.4357 14.2338 11.3442 15.0748L8.71394 17.1012C8.27755 17.4374 7.98907 17.8892 7.87973 18.4073C7.77036 18.9256 7.85052 19.4617 8.11137 19.9579C8.37258 20.4538 8.79003 20.863 9.31855 21.1411C9.84707 21.4193 10.4371 21.54 11.0248 21.4906L11.0642 21.4871C12.5398 21.3728 14.0555 21.8229 15.2289 22.7251C15.5317 22.9578 15.8739 23.131 16.2391 23.2382C16.4376 23.2965 16.6432 23.3353 16.8528 23.3537C17.4477 23.4056 18.0201 23.2871 18.5082 23.011C18.9959 22.735 19.3534 22.3273 19.5417 21.8321C19.7301 21.3369 19.7317 20.801 19.5464 20.282L18.4293 17.1553Z" fill="white"/>
<path d="M9.97627 14.6694C10.5891 14.6443 11.1288 14.3727 11.496 13.9045C11.8455 13.459 11.9963 12.8845 11.9206 12.2866C11.8446 11.689 11.5504 11.1331 11.0923 10.7209C10.6111 10.2881 10.0086 10.0638 9.39663 10.0894C8.16564 10.1401 7.29374 11.2088 7.45299 12.4724C7.58114 13.4785 8.32541 14.3085 9.24497 14.5785C9.47978 14.6474 9.72602 14.6799 9.97627 14.6694Z" fill="white"/>
<path d="M14.2046 13.7183C15.6041 14.1293 17.0786 13.3201 17.4914 11.9144C17.9043 10.5084 17.1015 9.03026 15.7019 8.61927C14.3024 8.20833 12.828 9.0178 12.4151 10.4238C12.0024 11.8294 12.8051 13.3073 14.2046 13.7183Z" fill="white"/>
<path d="M18.4043 15.6318L18.4044 15.6318C18.6012 15.758 18.812 15.8526 19.0307 15.9169C20.0514 16.2166 21.2384 15.8538 21.9135 14.9588C22.3022 14.4437 22.4677 13.8269 22.3795 13.2222C22.2873 12.5892 21.9317 12.0449 21.3782 11.6896C20.8245 11.3343 20.1477 11.2159 19.4722 11.3561C18.827 11.4901 18.2577 11.8477 17.8693 12.3629C17.0496 13.4498 17.2896 14.9162 18.4043 15.6318V15.6318Z" fill="white"/>
<path d="M23.8369 16.904L23.8366 16.9035C23.056 15.9916 21.5325 15.8401 20.4402 16.5661C19.3485 17.2928 19.0943 18.6261 19.8734 19.5381C20.1574 19.8708 20.5405 20.1025 20.9656 20.2273C21.7064 20.4448 22.575 20.3378 23.2702 19.8762C24.3617 19.1495 24.616 17.8162 23.8369 16.904V16.904Z" fill="white"/>
</g>
<path d="M53.26 9H56.5V23H53.26V9ZM46.9 23H43.66V9H46.9V23ZM53.5 17.26H46.66V14.52H53.5V17.26ZM66.1923 23V20.9L65.9923 20.44V16.68C65.9923 16.0133 65.7857 15.4933 65.3723 15.12C64.9723 14.7467 64.3523 14.56 63.5123 14.56C62.939 14.56 62.3723 14.6533 61.8123 14.84C61.2657 15.0133 60.799 15.2533 60.4123 15.56L59.2923 13.38C59.879 12.9667 60.5857 12.6467 61.4123 12.42C62.239 12.1933 63.079 12.08 63.9323 12.08C65.5723 12.08 66.8457 12.4667 67.7523 13.24C68.659 14.0133 69.1123 15.22 69.1123 16.86V23H66.1923ZM62.9123 23.16C62.0723 23.16 61.3523 23.02 60.7523 22.74C60.1523 22.4467 59.6923 22.0533 59.3723 21.56C59.0523 21.0667 58.8923 20.5133 58.8923 19.9C58.8923 19.26 59.0457 18.7 59.3523 18.22C59.6723 17.74 60.1723 17.3667 60.8523 17.1C61.5323 16.82 62.419 16.68 63.5123 16.68H66.3723V18.5H63.8523C63.119 18.5 62.6123 18.62 62.3323 18.86C62.0657 19.1 61.9323 19.4 61.9323 19.76C61.9323 20.16 62.0857 20.48 62.3923 20.72C62.7123 20.9467 63.1457 21.06 63.6923 21.06C64.2123 21.06 64.679 20.94 65.0923 20.7C65.5057 20.4467 65.8057 20.08 65.9923 19.6L66.4723 21.04C66.2457 21.7333 65.8323 22.26 65.2323 22.62C64.6323 22.98 63.859 23.16 62.9123 23.16ZM78.2961 23.16C77.3894 23.16 76.5961 22.96 75.9161 22.56C75.2361 22.16 74.7028 21.5533 74.3161 20.74C73.9428 19.9133 73.7561 18.8733 73.7561 17.62C73.7561 16.3533 73.9361 15.3133 74.2961 14.5C74.6561 13.6867 75.1761 13.08 75.8561 12.68C76.5361 12.28 77.3494 12.08 78.2961 12.08C79.3094 12.08 80.2161 12.3133 81.0161 12.78C81.8294 13.2333 82.4694 13.8733 82.9361 14.7C83.4161 15.5267 83.6561 16.5 83.6561 17.62C83.6561 18.7533 83.4161 19.7333 82.9361 20.56C82.4694 21.3867 81.8294 22.0267 81.0161 22.48C80.2161 22.9333 79.3094 23.16 78.2961 23.16ZM71.9361 26.88V12.24H74.9161V14.44L74.8561 17.64L75.0561 20.82V26.88H71.9361ZM77.7561 20.6C78.2761 20.6 78.7361 20.48 79.1361 20.24C79.5494 20 79.8761 19.66 80.1161 19.22C80.3694 18.7667 80.4961 18.2333 80.4961 17.62C80.4961 16.9933 80.3694 16.46 80.1161 16.02C79.8761 15.58 79.5494 15.24 79.1361 15C78.7361 14.76 78.2761 14.64 77.7561 14.64C77.2361 14.64 76.7694 14.76 76.3561 15C75.9428 15.24 75.6161 15.58 75.3761 16.02C75.1361 16.46 75.0161 16.9933 75.0161 17.62C75.0161 18.2333 75.1361 18.7667 75.3761 19.22C75.6161 19.66 75.9428 20 76.3561 20.24C76.7694 20.48 77.2361 20.6 77.7561 20.6ZM92.1047 23.16C91.198 23.16 90.4047 22.96 89.7247 22.56C89.0447 22.16 88.5114 21.5533 88.1247 20.74C87.7514 19.9133 87.5647 18.8733 87.5647 17.62C87.5647 16.3533 87.7447 15.3133 88.1047 14.5C88.4647 13.6867 88.9847 13.08 89.6647 12.68C90.3447 12.28 91.158 12.08 92.1047 12.08C93.118 12.08 94.0247 12.3133 94.8247 12.78C95.638 13.2333 96.278 13.8733 96.7447 14.7C97.2247 15.5267 97.4647 16.5 97.4647 17.62C97.4647 18.7533 97.2247 19.7333 96.7447 20.56C96.278 21.3867 95.638 22.0267 94.8247 22.48C94.0247 22.9333 93.118 23.16 92.1047 23.16ZM85.7447 26.88V12.24H88.7247V14.44L88.6647 17.64L88.8647 20.82V26.88H85.7447ZM91.5647 20.6C92.0847 20.6 92.5447 20.48 92.9447 20.24C93.358 20 93.6847 19.66 93.9247 19.22C94.178 18.7667 94.3047 18.2333 94.3047 17.62C94.3047 16.9933 94.178 16.46 93.9247 16.02C93.6847 15.58 93.358 15.24 92.9447 15C92.5447 14.76 92.0847 14.64 91.5647 14.64C91.0447 14.64 90.578 14.76 90.1647 15C89.7514 15.24 89.4247 15.58 89.1847 16.02C88.9447 16.46 88.8247 16.9933 88.8247 17.62C88.8247 18.2333 88.9447 18.7667 89.1847 19.22C89.4247 19.66 89.7514 20 90.1647 20.24C90.578 20.48 91.0447 20.6 91.5647 20.6ZM100.62 27.04C100.06 27.04 99.507 26.9533 98.9603 26.78C98.4136 26.6067 97.967 26.3667 97.6203 26.06L98.7603 23.84C99.0003 24.0533 99.2736 24.22 99.5803 24.34C99.9003 24.46 100.214 24.52 100.52 24.52C100.96 24.52 101.307 24.4133 101.56 24.2C101.827 24 102.067 23.66 102.28 23.18L102.84 21.86L103.08 21.52L106.94 12.24H109.94L105.08 23.66C104.734 24.5267 104.334 25.2067 103.88 25.7C103.44 26.1933 102.947 26.54 102.4 26.74C101.867 26.94 101.274 27.04 100.62 27.04ZM102.46 23.42L97.6603 12.24H100.88L104.6 21.24L102.46 23.42ZM117.098 23V9H123.158C124.411 9 125.491 9.20667 126.398 9.62C127.304 10.02 128.004 10.6 128.498 11.36C128.991 12.12 129.238 13.0267 129.238 14.08C129.238 15.12 128.991 16.02 128.498 16.78C128.004 17.54 127.304 18.1267 126.398 18.54C125.491 18.94 124.411 19.14 123.158 19.14H118.898L120.338 17.68V23H117.098ZM120.338 18.04L118.898 16.5H122.978C123.978 16.5 124.724 16.2867 125.218 15.86C125.711 15.4333 125.958 14.84 125.958 14.08C125.958 13.3067 125.711 12.7067 125.218 12.28C124.724 11.8533 123.978 11.64 122.978 11.64H118.898L120.338 10.1V18.04ZM136.651 23.16C135.424 23.16 134.344 22.92 133.411 22.44C132.491 21.96 131.778 21.3067 131.271 20.48C130.764 19.64 130.511 18.6867 130.511 17.62C130.511 16.54 130.758 15.5867 131.251 14.76C131.758 13.92 132.444 13.2667 133.311 12.8C134.178 12.32 135.158 12.08 136.251 12.08C137.304 12.08 138.251 12.3067 139.091 12.76C139.944 13.2 140.618 13.84 141.111 14.68C141.604 15.5067 141.851 16.5 141.851 17.66C141.851 17.78 141.844 17.92 141.831 18.08C141.818 18.2267 141.804 18.3667 141.791 18.5H133.051V16.68H140.151L138.951 17.22C138.951 16.66 138.838 16.1733 138.611 15.76C138.384 15.3467 138.071 15.0267 137.671 14.8C137.271 14.56 136.804 14.44 136.271 14.44C135.738 14.44 135.264 14.56 134.851 14.8C134.451 15.0267 134.138 15.3533 133.911 15.78C133.684 16.1933 133.571 16.6867 133.571 17.26V17.74C133.571 18.3267 133.698 18.8467 133.951 19.3C134.218 19.74 134.584 20.08 135.051 20.32C135.531 20.5467 136.091 20.66 136.731 20.66C137.304 20.66 137.804 20.5733 138.231 20.4C138.671 20.2267 139.071 19.9667 139.431 19.62L141.091 21.42C140.598 21.98 139.978 22.4133 139.231 22.72C138.484 23.0133 137.624 23.16 136.651 23.16ZM148.328 23.16C147.062 23.16 146.075 22.84 145.368 22.2C144.662 21.5467 144.308 20.58 144.308 19.3V9.86H147.428V19.26C147.428 19.7133 147.548 20.0667 147.788 20.32C148.028 20.56 148.355 20.68 148.768 20.68C149.262 20.68 149.682 20.5467 150.028 20.28L150.868 22.48C150.548 22.7067 150.162 22.88 149.708 23C149.268 23.1067 148.808 23.16 148.328 23.16ZM142.648 14.88V12.48H150.108V14.88H142.648Z" fill="black"/>
<defs>
<clipPath id="clip0_3_20">
<rect width="18.0098" height="15.8759" fill="white" transform="translate(9.24445 5.6889) rotate(16.3648)"/>
</clipPath>
</defs>
</svg>
